<svg width="382" height="427" viewBox="0 0 382 427" fill="none" xmlns="http://www.w3.org/2000/svg">
<g filter="url(#filter0_dd)">
<path d="M13.4243 108.796L7.40179 68.9653L10.0157 67.212L26.8507 64.6665L26.8909 64.932L25.4306 69.8245L13.2425 71.6674L15.1777 84.4662L29.5167 82.2981L29.5568 82.5637L28.0966 87.4561L15.9084 89.299L18.3737 105.603L13.6898 108.756L13.4243 108.796ZM46.2641 97.8549L51.8404 97.0118C53.6106 96.7441 54.3351 95.5481 54.0139 93.4238L53.4639 89.786C53.1427 87.6617 52.097 86.7334 50.3267 87.001L44.7505 87.8442C42.9802 88.1119 42.2557 89.3078 42.5769 91.4321L43.1269 95.07C43.4481 97.1943 44.4939 98.1226 46.2641 97.8549ZM46.9868 102.635C41.6761 103.438 38.6192 101.184 37.8162 95.873L37.2662 92.2351C36.4632 86.9244 38.717 83.8675 44.0278 83.0645L49.604 82.2214C50.5245 82.0822 51.4498 82.2139 52.3798 82.6165L52.0064 80.147C51.6852 78.0227 50.6395 77.0944 48.8693 77.3621L39.3631 78.7994L39.3229 78.5339L40.7647 73.6986L48.1466 72.5824C53.4573 71.7794 56.5142 74.0333 57.3172 79.344L60.3284 99.2592L55.6446 102.412L55.379 102.452L55.098 100.593C54.5056 101.226 53.6606 101.625 52.5631 101.791L46.9868 102.635ZM68.6559 100.445L65.2833 78.1395C64.4803 72.8288 66.7341 69.7719 72.0449 68.9689L78.1522 68.0455C83.4629 67.2425 86.5198 69.4963 87.3228 74.8071L90.334 94.7223L85.6502 97.875L85.3847 97.9151L82.0121 75.6101C81.6909 73.4858 80.6451 72.5575 78.8749 72.8251L72.7676 73.7486C70.9973 74.0162 70.2728 75.2122 70.594 77.3365L73.6052 97.2517L68.9214 100.404L68.6559 100.445ZM102.167 95.3777L98.3202 69.9393L91.4959 70.9711L91.4558 70.7056L92.916 65.8131L97.5895 65.1065L96.1441 55.5472L100.828 52.3945L101.093 52.3544L102.9 64.3035L109.724 63.2716L109.765 63.5372L108.304 68.4296L103.631 69.1363L107.116 92.1848L102.432 95.3375L102.167 95.3777ZM126.031 85.7939L132.139 84.8704C133.909 84.6028 134.633 83.4068 134.312 81.2825L132.305 68.0057C131.983 65.8814 130.938 64.9531 129.167 65.2207L123.06 66.1442C121.29 66.4119 120.565 67.6078 120.887 69.7321L122.894 83.0089C123.215 85.1332 124.261 86.0615 126.031 85.7939ZM126.754 90.5735C121.443 91.3765 118.386 89.1227 117.583 83.8119L115.576 70.5351C114.773 65.2244 117.027 62.1675 122.337 61.3645L128.445 60.4411C133.756 59.6381 136.812 61.8919 137.615 67.2027L139.623 80.4795C140.426 85.7902 138.172 88.8471 132.861 89.6501L126.754 90.5735ZM155.221 87.3557L140.563 59.7496L144.827 56.8776L145.093 56.8374L155.956 77.8469L159.963 54.5891L160.228 54.5489L165.151 56.0317L159.751 84.4436L155.486 87.3156L155.221 87.3557ZM180.552 82.4392C175.241 83.2422 172.184 80.9883 171.381 75.6776L171.237 74.7216L175.92 71.569L176.186 71.5288L176.692 74.8746C177.013 76.9989 178.059 77.9272 179.829 77.6595L185.936 76.7361C187.707 76.4684 188.431 75.2724 188.11 73.1481L187.793 71.0504C187.471 68.9261 186.426 67.9978 184.655 68.2655L179.663 69.0203C174.353 69.8233 171.294 67.5606 170.489 62.2321C169.686 56.9214 171.94 53.8645 177.25 53.0615L180.357 52.5918C185.668 51.7888 188.647 53.5293 189.295 57.8133L184.611 60.9659L184.346 61.0061L184.217 60.1564C183.896 58.0321 182.85 57.1038 181.08 57.3714L177.973 57.8412C176.203 58.1089 175.478 59.3048 175.8 61.4291C176.123 63.5711 177.17 64.5083 178.941 64.2406L183.933 63.4858C189.244 62.6828 192.3 64.9367 193.103 70.2474L193.421 72.3451C194.224 77.6559 191.97 80.7127 186.659 81.5157L180.552 82.4392ZM209.761 78.0227C204.45 78.8257 201.393 76.5718 200.59 71.2611L198.583 57.9843C197.78 52.6735 200.033 49.6167 205.344 48.8137L211.451 47.8902C216.762 47.0872 219.819 49.3411 220.622 54.6518L220.835 56.0592L216.151 59.2118L215.886 59.252L215.311 55.4548C214.99 53.3305 213.944 52.4022 212.174 52.6699L206.067 53.5933C204.297 53.861 203.572 55.057 203.893 57.1813L205.901 70.4581C206.222 72.5824 207.268 73.5107 209.038 73.243L215.145 72.3196C216.916 72.0519 217.64 70.8559 217.319 68.7316L217.106 67.3243L221.79 64.1716L222.055 64.1315L222.63 67.9286C223.433 73.2394 221.179 76.2962 215.868 77.0992L209.761 78.0227ZM228.222 39.3519C227.506 38.8083 227.082 38.0939 226.948 37.2088C226.811 36.306 227.005 35.4891 227.528 34.7581C228.051 34.0271 228.755 33.5947 229.64 33.4609C230.525 33.3271 231.326 33.532 232.042 34.0756C232.758 34.6192 233.184 35.3424 233.321 36.2452C233.454 37.1303 233.26 37.9384 232.736 38.6693C232.213 39.4003 231.509 39.8327 230.624 39.9666C229.739 40.1004 228.938 39.8955 228.222 39.3519ZM233.288 75.5516L228.912 46.6082L233.596 43.4555L233.861 43.4153L238.238 72.3588L233.554 75.5115L233.288 75.5516ZM247.893 73.3434L244.52 51.0383C243.717 45.7276 245.971 42.6707 251.282 41.8677L257.389 40.9443C262.7 40.1413 265.757 42.3952 266.56 47.7059L269.571 67.6211L264.887 70.7738L264.622 70.8139L261.249 48.5089C260.928 46.3846 259.882 45.4563 258.112 45.7239L252.005 46.6474C250.234 46.9151 249.51 48.111 249.831 50.2353L252.842 70.1506L248.158 73.3032L247.893 73.3434ZM283.654 61.9609L289.23 61.1178C291 60.8501 291.725 59.6541 291.404 57.5298L290.853 53.892C290.532 51.7677 289.487 50.8394 287.716 51.107L282.14 51.9502C280.37 52.2178 279.645 53.4138 279.966 55.5381L280.517 59.176C280.838 61.3003 281.883 62.2286 283.654 61.9609ZM284.376 66.7406C279.066 67.5436 276.009 65.2897 275.206 59.979L274.656 56.3411C273.853 51.0304 276.107 47.9735 281.417 47.1705L286.994 46.3274C287.914 46.1882 288.839 46.3199 289.769 46.7225L289.396 44.253C289.075 42.1287 288.029 41.2004 286.259 41.4681L276.753 42.9054L276.713 42.6399L278.154 37.8046L285.536 36.6884C290.847 35.8854 293.904 38.1393 294.707 43.45L297.718 63.3652L293.034 66.5179L292.769 66.5581L292.488 64.6993C291.895 65.3321 291.05 65.7315 289.953 65.8974L284.376 66.7406ZM307.547 62.8026C306.831 62.259 306.406 61.5446 306.272 60.6595C306.135 59.7567 306.329 58.9398 306.852 58.2088C307.375 57.4778 308.079 57.0454 308.965 56.9116C309.85 56.7778 310.65 56.9826 311.366 57.5263C312.082 58.0699 312.508 58.7931 312.645 59.6959C312.779 60.581 312.584 61.3891 312.061 62.12C311.537 62.851 310.833 63.2834 309.948 63.4172C309.063 63.5511 308.263 63.3462 307.547 62.8026ZM328.987 59.9954C323.676 60.7984 320.619 58.5445 319.816 53.2338L319.671 52.2778L324.355 49.1252L324.621 49.085L325.127 52.4308C325.448 54.5551 326.494 55.4834 328.264 55.2157L334.371 54.2923C336.141 54.0246 336.866 52.8286 336.545 50.7043L336.228 48.6066C335.906 46.4823 334.861 45.554 333.09 45.8217L328.098 46.5765C322.788 47.3795 319.729 45.1168 318.924 39.7883C318.121 34.4776 320.375 31.4207 325.685 30.6177L328.792 30.148C334.103 29.345 337.082 31.0855 337.73 35.3695L333.046 38.5221L332.78 38.5623L332.652 37.7126C332.331 35.5883 331.285 34.66 329.515 34.9276L326.408 35.3974C324.638 35.6651 323.913 36.861 324.234 38.9853C324.558 41.1273 325.605 42.0645 327.376 41.7968L332.368 41.042C337.678 40.239 340.735 42.4929 341.538 47.8036L341.855 49.9013C342.658 55.2121 340.405 58.2689 335.094 59.0719L328.987 59.9954ZM346.652 21.445C345.936 20.9014 345.511 20.1871 345.377 19.3019C345.24 18.3991 345.434 17.5822 345.957 16.8513C346.48 16.1203 347.184 15.6879 348.07 15.5541C348.955 15.4202 349.755 15.6251 350.471 16.1687C351.187 16.7123 351.613 17.4355 351.75 18.3384C351.884 19.2235 351.689 20.0315 351.166 20.7625C350.643 21.4935 349.938 21.9259 349.053 22.0597C348.168 22.1935 347.368 21.9886 346.652 21.445ZM351.718 57.6448L347.341 28.7013L352.025 25.5486L352.291 25.5085L356.667 54.4519L351.983 57.6046L351.718 57.6448Z" fill="white"/>
</g>
<g filter="url(#filter1_dd)">
<path d="M121.73 203.71L189.365 189.507C204.758 186.274 220.736 187.227 235.636 192.264L308.327 216.841C312.755 218.338 315.586 222.669 315.182 227.326C314.658 233.343 309.023 237.572 303.099 236.393L227.768 221.4C218.025 219.461 208.014 219.288 198.21 220.888L143.895 229.756C140.279 230.346 137.225 232.761 135.816 236.142C135.277 237.435 135 238.821 135 240.221V299.456C135 303.346 131.846 306.5 127.956 306.5C124.249 306.5 121.176 303.627 120.927 299.929L115 211.936C115.03 207.956 117.829 204.53 121.73 203.71Z" fill="white" stroke="#2E2E2E" stroke-width="4"/>
<circle cx="194" cy="176" r="27.5" fill="white"/>
<circle cx="194" cy="176" r="27.5" fill="white"/>
<circle cx="194" cy="176" r="27.5" stroke="#2E2E2E" stroke-width="5"/>
<circle cx="79" cy="240" r="27.5" fill="white"/>
<circle cx="79" cy="240" r="27.5" fill="white"/>
<circle cx="79" cy="240" r="27.5" stroke="#2E2E2E" stroke-width="5"/>
<path d="M177 218H218.704C223.255 218 227.523 220.213 230.146 223.933L270.491 281.157C272.292 283.711 272.223 287.139 270.322 289.619C267.426 293.396 261.717 293.339 258.898 289.505L230.981 251.538C229.086 248.96 225 250.301 225 253.5V412.5C225 418.299 220.299 423 214.5 423C208.701 423 204 418.299 204 412.5V329.25C204 323.589 199.411 319 193.75 319C188.089 319 183.5 323.589 183.5 329.25V412.75C183.5 418.411 178.911 423 173.25 423C167.589 423 163 418.411 163 412.75V232C163 224.268 169.268 218 177 218Z" fill="white" stroke="#2E2E2E" stroke-width="4"/>
<path d="M278.681 270.853L267.79 298.865C266.964 300.99 264.532 301.996 262.446 301.075L252.094 296.504C250.127 295.636 249.198 293.367 249.992 291.368L261.289 262.932C261.73 261.821 262.669 260.982 263.823 260.667C266.119 260.041 268.004 258.4 268.942 256.212L273.227 246.214C274.007 244.394 276.057 243.48 277.932 244.117C279.948 244.801 281.006 247.011 280.274 249.011L276.789 258.536C276.03 260.611 276.163 262.907 277.156 264.881L278.526 267.605C279.036 268.617 279.092 269.797 278.681 270.853Z" fill="white" stroke="#2E2E2E" stroke-width="4"/>
</g>
<defs>
<filter id="filter0_dd" x="5.40179" y="13.5144" width="353.265" height="97.2814" filterUnits="userSpaceOnUse" color-interpolation-filters="sRGB">
<feFlood flood-opacity="0" result="BackgroundImageFix"/>
<feColorMatrix in="SourceAlpha" type="matrix" values="0 0 0 0 0 0 0 0 0 0 0 0 0 0 0 0 0 0 127 0" result="hardAlpha"/>
<feOffset dx="2" dy="-2"/>
<feComposite in2="hardAlpha" operator="out"/>
<feColorMatrix type="matrix" values="0 0 0 0 1 0 0 0 0 0 0 0 0 0 0.96 0 0 0 1 0"/>
<feBlend mode="normal" in2="BackgroundImageFix" result="effect1_dropShadow"/>
<feColorMatrix in="SourceAlpha" type="matrix" values="0 0 0 0 0 0 0 0 0 0 0 0 0 0 0 0 0 0 127 0" result="hardAlpha"/>
<feOffset dx="-2" dy="2"/>
<feComposite in2="hardAlpha" operator="out"/>
<feColorMatrix type="matrix" values="0 0 0 0 0 0 0 0 0 1 0 0 0 0 0.28 0 0 0 1 0"/>
<feBlend mode="normal" in2="effect1_dropShadow" result="effect2_dropShadow"/>
<feBlend mode="normal" in="SourceGraphic" in2="effect2_dropShadow" result="shape"/>
</filter>
<filter id="filter1_dd" x="47" y="144" width="272.22" height="283" filterUnits="userSpaceOnUse" color-interpolation-filters="sRGB">
<feFlood flood-opacity="0" result="BackgroundImageFix"/>
<feColorMatrix in="SourceAlpha" type="matrix" values="0 0 0 0 0 0 0 0 0 0 0 0 0 0 0 0 0 0 127 0" result="hardAlpha"/>
<feOffset dx="-2" dy="2"/>
<feComposite in2="hardAlpha" operator="out"/>
<feColorMatrix type="matrix" values="0 0 0 0 0 0 0 0 0 1 0 0 0 0 0.28 0 0 0 1 0"/>
<feBlend mode="normal" in2="BackgroundImageFix" result="effect1_dropShadow"/>
<feColorMatrix in="SourceAlpha" type="matrix" values="0 0 0 0 0 0 0 0 0 0 0 0 0 0 0 0 0 0 127 0" result="hardAlpha"/>
<feOffset dx="2" dy="-2"/>
<feComposite in2="hardAlpha" operator="out"/>
<feColorMatrix type="matrix" values="0 0 0 0 1 0 0 0 0 0 0 0 0 0 0.96 0 0 0 1 0"/>
<feBlend mode="normal" in2="effect1_dropShadow" result="effect2_dropShadow"/>
<feBlend mode="normal" in="SourceGraphic" in2="effect2_dropShadow" result="shape"/>
</filter>
</defs>
</svg>
